%TF.GenerationSoftware,KiCad,Pcbnew,10.0.4-1.fc44*%
%TF.CreationDate,2026-08-05T14:50:02+05:30*%
%TF.ProjectId,lmr16006-12v-3v3-sw-buck-conv,6c6d7231-3630-4303-962d-3132762d3376,rev?*%
%TF.SameCoordinates,Original*%
%TF.FileFunction,Legend,Top*%
%TF.FilePolarity,Positive*%
%FSLAX46Y46*%
G04 Gerber Fmt 4.6, Leading zero omitted, Abs format (unit mm)*
G04 Created by KiCad (PCBNEW 10.0.4-1.fc44) date 2026-08-05 14:50:02*
%MOMM*%
%LPD*%
G01*
G04 APERTURE LIST*
%ADD10C,0.100000*%
%ADD11C,0.150000*%
%ADD12C,0.152000*%
%ADD13C,0.060000*%
%ADD14C,0.254000*%
%ADD15C,0.120000*%
%ADD16C,0.127000*%
%ADD17C,0.200000*%
G04 APERTURE END LIST*
D10*
X78357419Y-87690476D02*
X78357419Y-88261904D01*
X78357419Y-87976190D02*
X77357419Y-87976190D01*
X77357419Y-87976190D02*
X77500276Y-88071428D01*
X77500276Y-88071428D02*
X77595514Y-88166666D01*
X77595514Y-88166666D02*
X77643133Y-88261904D01*
X77357419Y-86785714D02*
X77357419Y-87261904D01*
X77357419Y-87261904D02*
X77833609Y-87309523D01*
X77833609Y-87309523D02*
X77785990Y-87261904D01*
X77785990Y-87261904D02*
X77738371Y-87166666D01*
X77738371Y-87166666D02*
X77738371Y-86928571D01*
X77738371Y-86928571D02*
X77785990Y-86833333D01*
X77785990Y-86833333D02*
X77833609Y-86785714D01*
X77833609Y-86785714D02*
X77928847Y-86738095D01*
X77928847Y-86738095D02*
X78166942Y-86738095D01*
X78166942Y-86738095D02*
X78262180Y-86785714D01*
X78262180Y-86785714D02*
X78309800Y-86833333D01*
X78309800Y-86833333D02*
X78357419Y-86928571D01*
X78357419Y-86928571D02*
X78357419Y-87166666D01*
X78357419Y-87166666D02*
X78309800Y-87261904D01*
X78309800Y-87261904D02*
X78262180Y-87309523D01*
X78750000Y-80000000D02*
X78413580Y-80000000D01*
X79586420Y-95000000D02*
X79250000Y-95000000D01*
X79000000Y-80000000D02*
X79000000Y-95000000D01*
X79000000Y-80000000D02*
X79586421Y-81126504D01*
X79000000Y-80000000D02*
X78413579Y-81126504D01*
X79000000Y-95000000D02*
X78413579Y-93873496D01*
X79000000Y-95000000D02*
X79586421Y-93873496D01*
X89238095Y-77202657D02*
X89285714Y-77155038D01*
X89285714Y-77155038D02*
X89380952Y-77107419D01*
X89380952Y-77107419D02*
X89619047Y-77107419D01*
X89619047Y-77107419D02*
X89714285Y-77155038D01*
X89714285Y-77155038D02*
X89761904Y-77202657D01*
X89761904Y-77202657D02*
X89809523Y-77297895D01*
X89809523Y-77297895D02*
X89809523Y-77393133D01*
X89809523Y-77393133D02*
X89761904Y-77535990D01*
X89761904Y-77535990D02*
X89190476Y-78107419D01*
X89190476Y-78107419D02*
X89809523Y-78107419D01*
X90428571Y-77107419D02*
X90523809Y-77107419D01*
X90523809Y-77107419D02*
X90619047Y-77155038D01*
X90619047Y-77155038D02*
X90666666Y-77202657D01*
X90666666Y-77202657D02*
X90714285Y-77297895D01*
X90714285Y-77297895D02*
X90761904Y-77488371D01*
X90761904Y-77488371D02*
X90761904Y-77726466D01*
X90761904Y-77726466D02*
X90714285Y-77916942D01*
X90714285Y-77916942D02*
X90666666Y-78012180D01*
X90666666Y-78012180D02*
X90619047Y-78059800D01*
X90619047Y-78059800D02*
X90523809Y-78107419D01*
X90523809Y-78107419D02*
X90428571Y-78107419D01*
X90428571Y-78107419D02*
X90333333Y-78059800D01*
X90333333Y-78059800D02*
X90285714Y-78012180D01*
X90285714Y-78012180D02*
X90238095Y-77916942D01*
X90238095Y-77916942D02*
X90190476Y-77726466D01*
X90190476Y-77726466D02*
X90190476Y-77488371D01*
X90190476Y-77488371D02*
X90238095Y-77297895D01*
X90238095Y-77297895D02*
X90285714Y-77202657D01*
X90285714Y-77202657D02*
X90333333Y-77155038D01*
X90333333Y-77155038D02*
X90428571Y-77107419D01*
X80000000Y-79000000D02*
X80000000Y-79336420D01*
X100000000Y-79336420D02*
X100000000Y-79000000D01*
X80000000Y-78750000D02*
X100000000Y-78750000D01*
X80000000Y-78750000D02*
X81126504Y-78163579D01*
X80000000Y-78750000D02*
X81126504Y-79336421D01*
X100000000Y-78750000D02*
X98873496Y-79336421D01*
X100000000Y-78750000D02*
X98873496Y-78163579D01*
D11*
X98437438Y-84426904D02*
X98389819Y-84522142D01*
X98389819Y-84522142D02*
X98389819Y-84664999D01*
X98389819Y-84664999D02*
X98437438Y-84807856D01*
X98437438Y-84807856D02*
X98532676Y-84903094D01*
X98532676Y-84903094D02*
X98627914Y-84950713D01*
X98627914Y-84950713D02*
X98818390Y-84998332D01*
X98818390Y-84998332D02*
X98961247Y-84998332D01*
X98961247Y-84998332D02*
X99151723Y-84950713D01*
X99151723Y-84950713D02*
X99246961Y-84903094D01*
X99246961Y-84903094D02*
X99342200Y-84807856D01*
X99342200Y-84807856D02*
X99389819Y-84664999D01*
X99389819Y-84664999D02*
X99389819Y-84569761D01*
X99389819Y-84569761D02*
X99342200Y-84426904D01*
X99342200Y-84426904D02*
X99294580Y-84379285D01*
X99294580Y-84379285D02*
X98961247Y-84379285D01*
X98961247Y-84379285D02*
X98961247Y-84569761D01*
X99389819Y-83950713D02*
X98389819Y-83950713D01*
X98389819Y-83950713D02*
X99389819Y-83379285D01*
X99389819Y-83379285D02*
X98389819Y-83379285D01*
X99389819Y-82903094D02*
X98389819Y-82903094D01*
X98389819Y-82903094D02*
X98389819Y-82664999D01*
X98389819Y-82664999D02*
X98437438Y-82522142D01*
X98437438Y-82522142D02*
X98532676Y-82426904D01*
X98532676Y-82426904D02*
X98627914Y-82379285D01*
X98627914Y-82379285D02*
X98818390Y-82331666D01*
X98818390Y-82331666D02*
X98961247Y-82331666D01*
X98961247Y-82331666D02*
X99151723Y-82379285D01*
X99151723Y-82379285D02*
X99246961Y-82426904D01*
X99246961Y-82426904D02*
X99342200Y-82522142D01*
X99342200Y-82522142D02*
X99389819Y-82664999D01*
X99389819Y-82664999D02*
X99389819Y-82903094D01*
X81639819Y-91834047D02*
X81639819Y-92405475D01*
X81639819Y-92119761D02*
X80639819Y-92119761D01*
X80639819Y-92119761D02*
X80782676Y-92214999D01*
X80782676Y-92214999D02*
X80877914Y-92310237D01*
X80877914Y-92310237D02*
X80925533Y-92405475D01*
X80735057Y-91453094D02*
X80687438Y-91405475D01*
X80687438Y-91405475D02*
X80639819Y-91310237D01*
X80639819Y-91310237D02*
X80639819Y-91072142D01*
X80639819Y-91072142D02*
X80687438Y-90976904D01*
X80687438Y-90976904D02*
X80735057Y-90929285D01*
X80735057Y-90929285D02*
X80830295Y-90881666D01*
X80830295Y-90881666D02*
X80925533Y-90881666D01*
X80925533Y-90881666D02*
X81068390Y-90929285D01*
X81068390Y-90929285D02*
X81639819Y-91500713D01*
X81639819Y-91500713D02*
X81639819Y-90881666D01*
X80639819Y-90595951D02*
X81639819Y-90262618D01*
X81639819Y-90262618D02*
X80639819Y-89929285D01*
X98314819Y-92306189D02*
X98314819Y-91687142D01*
X98314819Y-91687142D02*
X98695771Y-92020475D01*
X98695771Y-92020475D02*
X98695771Y-91877618D01*
X98695771Y-91877618D02*
X98743390Y-91782380D01*
X98743390Y-91782380D02*
X98791009Y-91734761D01*
X98791009Y-91734761D02*
X98886247Y-91687142D01*
X98886247Y-91687142D02*
X99124342Y-91687142D01*
X99124342Y-91687142D02*
X99219580Y-91734761D01*
X99219580Y-91734761D02*
X99267200Y-91782380D01*
X99267200Y-91782380D02*
X99314819Y-91877618D01*
X99314819Y-91877618D02*
X99314819Y-92163332D01*
X99314819Y-92163332D02*
X99267200Y-92258570D01*
X99267200Y-92258570D02*
X99219580Y-92306189D01*
X99219580Y-91258570D02*
X99267200Y-91210951D01*
X99267200Y-91210951D02*
X99314819Y-91258570D01*
X99314819Y-91258570D02*
X99267200Y-91306189D01*
X99267200Y-91306189D02*
X99219580Y-91258570D01*
X99219580Y-91258570D02*
X99314819Y-91258570D01*
X98314819Y-90877618D02*
X98314819Y-90258571D01*
X98314819Y-90258571D02*
X98695771Y-90591904D01*
X98695771Y-90591904D02*
X98695771Y-90449047D01*
X98695771Y-90449047D02*
X98743390Y-90353809D01*
X98743390Y-90353809D02*
X98791009Y-90306190D01*
X98791009Y-90306190D02*
X98886247Y-90258571D01*
X98886247Y-90258571D02*
X99124342Y-90258571D01*
X99124342Y-90258571D02*
X99219580Y-90306190D01*
X99219580Y-90306190D02*
X99267200Y-90353809D01*
X99267200Y-90353809D02*
X99314819Y-90449047D01*
X99314819Y-90449047D02*
X99314819Y-90734761D01*
X99314819Y-90734761D02*
X99267200Y-90829999D01*
X99267200Y-90829999D02*
X99219580Y-90877618D01*
X98314819Y-89972856D02*
X99314819Y-89639523D01*
X99314819Y-89639523D02*
X98314819Y-89306190D01*
X80837438Y-84396904D02*
X80789819Y-84492142D01*
X80789819Y-84492142D02*
X80789819Y-84634999D01*
X80789819Y-84634999D02*
X80837438Y-84777856D01*
X80837438Y-84777856D02*
X80932676Y-84873094D01*
X80932676Y-84873094D02*
X81027914Y-84920713D01*
X81027914Y-84920713D02*
X81218390Y-84968332D01*
X81218390Y-84968332D02*
X81361247Y-84968332D01*
X81361247Y-84968332D02*
X81551723Y-84920713D01*
X81551723Y-84920713D02*
X81646961Y-84873094D01*
X81646961Y-84873094D02*
X81742200Y-84777856D01*
X81742200Y-84777856D02*
X81789819Y-84634999D01*
X81789819Y-84634999D02*
X81789819Y-84539761D01*
X81789819Y-84539761D02*
X81742200Y-84396904D01*
X81742200Y-84396904D02*
X81694580Y-84349285D01*
X81694580Y-84349285D02*
X81361247Y-84349285D01*
X81361247Y-84349285D02*
X81361247Y-84539761D01*
X81789819Y-83920713D02*
X80789819Y-83920713D01*
X80789819Y-83920713D02*
X81789819Y-83349285D01*
X81789819Y-83349285D02*
X80789819Y-83349285D01*
X81789819Y-82873094D02*
X80789819Y-82873094D01*
X80789819Y-82873094D02*
X80789819Y-82634999D01*
X80789819Y-82634999D02*
X80837438Y-82492142D01*
X80837438Y-82492142D02*
X80932676Y-82396904D01*
X80932676Y-82396904D02*
X81027914Y-82349285D01*
X81027914Y-82349285D02*
X81218390Y-82301666D01*
X81218390Y-82301666D02*
X81361247Y-82301666D01*
X81361247Y-82301666D02*
X81551723Y-82349285D01*
X81551723Y-82349285D02*
X81646961Y-82396904D01*
X81646961Y-82396904D02*
X81742200Y-82492142D01*
X81742200Y-82492142D02*
X81789819Y-82634999D01*
X81789819Y-82634999D02*
X81789819Y-82873094D01*
X88844380Y-83188699D02*
X88844380Y-83706794D01*
X88844380Y-83706794D02*
X88874857Y-83767746D01*
X88874857Y-83767746D02*
X88905333Y-83798223D01*
X88905333Y-83798223D02*
X88966285Y-83828699D01*
X88966285Y-83828699D02*
X89088190Y-83828699D01*
X89088190Y-83828699D02*
X89149142Y-83798223D01*
X89149142Y-83798223D02*
X89179619Y-83767746D01*
X89179619Y-83767746D02*
X89210095Y-83706794D01*
X89210095Y-83706794D02*
X89210095Y-83188699D01*
X89850095Y-83828699D02*
X89484380Y-83828699D01*
X89667237Y-83828699D02*
X89667237Y-83188699D01*
X89667237Y-83188699D02*
X89606285Y-83280127D01*
X89606285Y-83280127D02*
X89545333Y-83341080D01*
X89545333Y-83341080D02*
X89484380Y-83371556D01*
%TO.C,D1*%
D12*
X88887400Y-88036646D02*
X88958000Y-88036646D01*
X88887400Y-88193146D02*
X88887400Y-88036646D01*
X88887400Y-88195646D02*
X88887400Y-91395646D01*
X88887400Y-88332546D02*
X88958000Y-88332546D01*
X88958000Y-88036646D02*
X88887400Y-88036646D01*
X88958000Y-88193146D02*
X88887400Y-88193146D01*
X88958000Y-88193146D02*
X88958000Y-88036646D01*
X88958000Y-88193146D02*
X88958000Y-88332546D01*
X88958000Y-91393146D02*
X88887400Y-91393146D01*
X90816800Y-88332546D02*
X90816800Y-88036646D01*
X90816800Y-88332546D02*
X90816800Y-88193146D01*
X90816800Y-88332546D02*
X90869700Y-88332546D01*
X90869700Y-88332546D02*
X90887400Y-88350146D01*
X90887400Y-88036646D02*
X90816800Y-88036646D01*
X90887400Y-88193146D02*
X90816800Y-88193146D01*
X90887400Y-88193146D02*
X90887400Y-88036646D01*
X90887400Y-91393146D02*
X90816800Y-91393146D01*
X90887400Y-91393146D02*
X90887400Y-88193146D01*
D13*
X89012300Y-88008246D02*
G75*
G02*
X88952500Y-88008246I-29900J0D01*
G01*
X88952500Y-88008246D02*
G75*
G02*
X89012300Y-88008246I29900J0D01*
G01*
%TO.C,C3*%
D14*
X95305900Y-84772200D02*
X95305900Y-85572200D01*
X95306400Y-84211700D02*
X95306400Y-83411800D01*
X95616200Y-83102000D02*
X96416300Y-83102000D01*
X96415700Y-85881900D02*
X95615700Y-85881900D01*
X96725600Y-84772200D02*
X96725600Y-85572200D01*
X96726000Y-84211700D02*
X96726000Y-83411800D01*
D13*
X96446000Y-85292100D02*
G75*
G02*
X96386000Y-85292100I-30000J0D01*
G01*
X96386000Y-85292100D02*
G75*
G02*
X96446000Y-85292100I30000J0D01*
G01*
%TO.C,C1*%
D14*
X89282000Y-86157300D02*
X89282000Y-86957200D01*
X89282400Y-85596800D02*
X89282400Y-84796800D01*
X89592300Y-84487100D02*
X90392300Y-84487100D01*
X90391800Y-87267000D02*
X89591700Y-87267000D01*
X90701600Y-86157300D02*
X90701600Y-86957200D01*
X90702100Y-85596800D02*
X90702100Y-84796800D01*
D13*
X89622000Y-85076900D02*
G75*
G02*
X89562000Y-85076900I-30000J0D01*
G01*
X89562000Y-85076900D02*
G75*
G02*
X89622000Y-85076900I30000J0D01*
G01*
%TO.C,L1*%
D14*
X93690900Y-88730354D02*
X92556900Y-88730354D01*
X93693100Y-84666354D02*
X92559100Y-84666354D01*
D13*
X91155000Y-88698354D02*
G75*
G02*
X91095000Y-88698354I-30000J0D01*
G01*
X91095000Y-88698354D02*
G75*
G02*
X91155000Y-88698354I30000J0D01*
G01*
%TO.C,R1*%
D15*
X83974323Y-88579724D02*
X83974323Y-88070276D01*
X85019323Y-88579724D02*
X85019323Y-88070276D01*
%TO.C,GND*%
X98090000Y-80340000D02*
X98090000Y-80465000D01*
X98149435Y-80340000D02*
X98090000Y-80340000D01*
X99580000Y-80340000D02*
X98090000Y-80340000D01*
X99580000Y-80340000D02*
X99520565Y-80340000D01*
X99580000Y-80340000D02*
X99580000Y-80465000D01*
X99580000Y-81075000D02*
X99580000Y-81810000D01*
X99580000Y-81810000D02*
X98835000Y-81810000D01*
%TO.C,12V*%
X80590000Y-92990000D02*
X80590000Y-93115000D01*
X80649435Y-92990000D02*
X80590000Y-92990000D01*
X82080000Y-92990000D02*
X80590000Y-92990000D01*
X82080000Y-92990000D02*
X82020565Y-92990000D01*
X82080000Y-92990000D02*
X82080000Y-93115000D01*
X82080000Y-93725000D02*
X82080000Y-94460000D01*
X82080000Y-94460000D02*
X81335000Y-94460000D01*
%TO.C,R3*%
X84052500Y-84228453D02*
X84052500Y-84737901D01*
X85097500Y-84228453D02*
X85097500Y-84737901D01*
%TO.C,3.3V*%
X97840000Y-93015000D02*
X97840000Y-93140000D01*
X97899435Y-93015000D02*
X97840000Y-93015000D01*
X99330000Y-93015000D02*
X97840000Y-93015000D01*
X99330000Y-93015000D02*
X99270565Y-93015000D01*
X99330000Y-93015000D02*
X99330000Y-93140000D01*
X99330000Y-93750000D02*
X99330000Y-94485000D01*
X99330000Y-94485000D02*
X98585000Y-94485000D01*
%TO.C,GND*%
X80340000Y-80340000D02*
X80340000Y-80465000D01*
X80399435Y-80340000D02*
X80340000Y-80340000D01*
X81830000Y-80340000D02*
X80340000Y-80340000D01*
X81830000Y-80340000D02*
X81770565Y-80340000D01*
X81830000Y-80340000D02*
X81830000Y-80465000D01*
X81830000Y-81075000D02*
X81830000Y-81810000D01*
X81830000Y-81810000D02*
X81085000Y-81810000D01*
%TO.C,U1*%
D16*
X85688177Y-85350000D02*
X85688177Y-86950000D01*
X88818177Y-85350000D02*
X88818177Y-86950000D01*
D17*
X88553177Y-83750000D02*
G75*
G02*
X88353177Y-83750000I-100000J0D01*
G01*
X88353177Y-83750000D02*
G75*
G02*
X88553177Y-83750000I100000J0D01*
G01*
%TO.C,R2*%
D15*
X87504724Y-81484323D02*
X86995276Y-81484323D01*
X87504724Y-82529323D02*
X86995276Y-82529323D01*
%TO.C,C2*%
D14*
X85316000Y-89645800D02*
X85316000Y-88845700D01*
X86425700Y-88536000D02*
X85625800Y-88536000D01*
X86425700Y-89955600D02*
X85625800Y-89955600D01*
X86986200Y-88536400D02*
X87786200Y-88536400D01*
X86986200Y-89956100D02*
X87786200Y-89956100D01*
X88095900Y-88846300D02*
X88095900Y-89646300D01*
D13*
X87536100Y-88846000D02*
G75*
G02*
X87476100Y-88846000I-30000J0D01*
G01*
X87476100Y-88846000D02*
G75*
G02*
X87536100Y-88846000I30000J0D01*
G01*
%TD*%
M02*
