%TF.GenerationSoftware,KiCad,Pcbnew,10.0.4-1.fc44*%
%TF.CreationDate,2026-08-05T14:50:01+05:30*%
%TF.ProjectId,lmr16006-12v-3v3-sw-buck-conv,6c6d7231-3630-4303-962d-3132762d3376,rev?*%
%TF.SameCoordinates,Original*%
%TF.FileFunction,Copper,L1,Top*%
%TF.FilePolarity,Positive*%
%FSLAX46Y46*%
G04 Gerber Fmt 4.6, Leading zero omitted, Abs format (unit mm)*
G04 Created by KiCad (PCBNEW 10.0.4-1.fc44) date 2026-08-05 14:50:01*
%MOMM*%
%LPD*%
G01*
G04 APERTURE LIST*
G04 Aperture macros list*
%AMRoundRect*
0 Rectangle with rounded corners*
0 $1 Rounding radius*
0 $2 $3 $4 $5 $6 $7 $8 $9 X,Y pos of 4 corners*
0 Add a 4 corners polygon primitive as box body*
4,1,4,$2,$3,$4,$5,$6,$7,$8,$9,$2,$3,0*
0 Add four circle primitives for the rounded corners*
1,1,$1+$1,$2,$3*
1,1,$1+$1,$4,$5*
1,1,$1+$1,$6,$7*
1,1,$1+$1,$8,$9*
0 Add four rect primitives between the rounded corners*
20,1,$1+$1,$2,$3,$4,$5,0*
20,1,$1+$1,$4,$5,$6,$7,0*
20,1,$1+$1,$6,$7,$8,$9,0*
20,1,$1+$1,$8,$9,$2,$3,0*%
G04 Aperture macros list end*
%TA.AperFunction,SMDPad,CuDef*%
%ADD10R,1.500000X2.400000*%
%TD*%
%TA.AperFunction,SMDPad,CuDef*%
%ADD11R,1.500000X1.050000*%
%TD*%
%TA.AperFunction,SMDPad,CuDef*%
%ADD12R,0.900000X0.800000*%
%TD*%
%TA.AperFunction,SMDPad,CuDef*%
%ADD13R,1.200000X4.000000*%
%TD*%
%TA.AperFunction,SMDPad,CuDef*%
%ADD14RoundRect,0.237500X0.237500X-0.250000X0.237500X0.250000X-0.237500X0.250000X-0.237500X-0.250000X0*%
%TD*%
%TA.AperFunction,ComponentPad*%
%ADD15R,0.850000X0.850000*%
%TD*%
%TA.AperFunction,SMDPad,CuDef*%
%ADD16RoundRect,0.237500X-0.237500X0.250000X-0.237500X-0.250000X0.237500X-0.250000X0.237500X0.250000X0*%
%TD*%
%TA.AperFunction,SMDPad,CuDef*%
%ADD17RoundRect,0.073750X-0.221250X0.651250X-0.221250X-0.651250X0.221250X-0.651250X0.221250X0.651250X0*%
%TD*%
%TA.AperFunction,SMDPad,CuDef*%
%ADD18RoundRect,0.237500X0.250000X0.237500X-0.250000X0.237500X-0.250000X-0.237500X0.250000X-0.237500X0*%
%TD*%
%TA.AperFunction,SMDPad,CuDef*%
%ADD19R,0.800000X0.900000*%
%TD*%
%TA.AperFunction,ViaPad*%
%ADD20C,0.600000*%
%TD*%
%TA.AperFunction,Conductor*%
%ADD21C,0.600000*%
%TD*%
G04 APERTURE END LIST*
D10*
%TO.P,D1,1,K_1*%
%TO.N,Net-(D1-K)*%
X89887400Y-89008246D03*
D11*
%TO.P,D1,2,A_2*%
%TO.N,GND*%
X89887400Y-91383146D03*
%TD*%
D12*
%TO.P,C3,1*%
%TO.N,+3.3V*%
X96016000Y-85192000D03*
%TO.P,C3,2*%
%TO.N,GND*%
X96016000Y-83792000D03*
%TD*%
%TO.P,C1,1*%
%TO.N,Net-(U1-CB)*%
X89992000Y-85177000D03*
%TO.P,C1,2*%
%TO.N,Net-(D1-K)*%
X89992000Y-86577000D03*
%TD*%
D13*
%TO.P,L1,1,1_1*%
%TO.N,Net-(D1-K)*%
X91728000Y-86698354D03*
%TO.P,L1,2,2_2*%
%TO.N,+3.3V*%
X94522000Y-86698354D03*
%TD*%
D14*
%TO.P,R1,1*%
%TO.N,VIN*%
X84496823Y-89237500D03*
%TO.P,R1,2*%
%TO.N,Net-(U1-SHDN)*%
X84496823Y-87412500D03*
%TD*%
D15*
%TO.P,GND,1,Pin_1_1*%
%TO.N,GND*%
X98835000Y-81075000D03*
%TD*%
%TO.P,12V,1,Pin_1_1*%
%TO.N,VIN*%
X81335000Y-93725000D03*
%TD*%
D16*
%TO.P,R3,1*%
%TO.N,Net-(U1-FB)*%
X84575000Y-83570677D03*
%TO.P,R3,2*%
%TO.N,GND*%
X84575000Y-85395677D03*
%TD*%
D15*
%TO.P,3.3V,1,Pin_1_1*%
%TO.N,+3.3V*%
X98585000Y-93750000D03*
%TD*%
%TO.P,GND,1,Pin_1_1*%
%TO.N,GND*%
X81085000Y-81075000D03*
%TD*%
D17*
%TO.P,U1,1,CB_1*%
%TO.N,Net-(U1-CB)*%
X88203177Y-84995000D03*
%TO.P,U1,2,GND_2*%
%TO.N,GND*%
X87253177Y-84995000D03*
%TO.P,U1,3,FB_3*%
%TO.N,Net-(U1-FB)*%
X86303177Y-84995000D03*
%TO.P,U1,4,SHDN_4*%
%TO.N,Net-(U1-SHDN)*%
X86303177Y-87305000D03*
%TO.P,U1,5,VIN_5*%
%TO.N,VIN*%
X87253177Y-87305000D03*
%TO.P,U1,6,SW_6*%
%TO.N,Net-(D1-K)*%
X88203177Y-87305000D03*
%TD*%
D18*
%TO.P,R2,1*%
%TO.N,+3.3V*%
X88162500Y-82006823D03*
%TO.P,R2,2*%
%TO.N,Net-(U1-FB)*%
X86337500Y-82006823D03*
%TD*%
D19*
%TO.P,C2,1*%
%TO.N,VIN*%
X87406000Y-89246000D03*
%TO.P,C2,2*%
%TO.N,GND*%
X86006000Y-89246000D03*
%TD*%
D20*
%TO.N,GND*%
X96000000Y-82750000D03*
X87253177Y-83500000D03*
X83104323Y-85395677D03*
X89887400Y-92612600D03*
X86000000Y-90250000D03*
%TD*%
%TO.N,GND*%
D21*
X96008000Y-83796000D02*
X96008000Y-82758000D01*
X86006000Y-90244000D02*
X86000000Y-90250000D01*
X89887400Y-92612600D02*
X89887400Y-91383146D01*
X87253177Y-84995000D02*
X87253177Y-83500000D01*
X86006000Y-89246000D02*
X86006000Y-90244000D01*
X84575000Y-85395677D02*
X83104323Y-85395677D01*
%TO.N,Net-(U1-SHDN)*%
X86195677Y-87412500D02*
X86303177Y-87305000D01*
X84496823Y-87412500D02*
X86195677Y-87412500D01*
%TO.N,Net-(U1-FB)*%
X84575000Y-82425000D02*
X84993177Y-82006823D01*
X84575000Y-83570677D02*
X84575000Y-82425000D01*
X84993177Y-82006823D02*
X86337500Y-82006823D01*
X86303177Y-84995000D02*
X86303177Y-82141146D01*
%TO.N,+3.3V*%
X88269323Y-82000000D02*
X88262500Y-82006823D01*
X94522000Y-86698354D02*
X94522000Y-83022000D01*
X93500000Y-82000000D02*
X88269323Y-82000000D01*
X94522000Y-83022000D02*
X93500000Y-82000000D01*
%TD*%
%TA.AperFunction,Conductor*%
%TO.N,Net-(U1-CB)*%
G36*
X90185039Y-84019685D02*
G01*
X90230794Y-84072489D01*
X90242000Y-84124000D01*
X90242000Y-85626000D01*
X90222315Y-85693039D01*
X90169511Y-85738794D01*
X90118000Y-85750000D01*
X88124000Y-85750000D01*
X88056961Y-85730315D01*
X88011206Y-85677511D01*
X88000000Y-85626000D01*
X88000000Y-84124000D01*
X88019685Y-84056961D01*
X88072489Y-84011206D01*
X88124000Y-84000000D01*
X90118000Y-84000000D01*
X90185039Y-84019685D01*
G37*
%TD.AperFunction*%
%TD*%
%TA.AperFunction,Conductor*%
%TO.N,+3.3V*%
G36*
X99442539Y-84519685D02*
G01*
X99488294Y-84572489D01*
X99499500Y-84624000D01*
X99499500Y-94375500D01*
X99479815Y-94442539D01*
X99427011Y-94488294D01*
X99375500Y-94499500D01*
X94124000Y-94499500D01*
X94056961Y-94479815D01*
X94011206Y-94427011D01*
X94000000Y-94375500D01*
X94000000Y-84624000D01*
X94019685Y-84556961D01*
X94072489Y-84511206D01*
X94124000Y-84500000D01*
X99375500Y-84500000D01*
X99442539Y-84519685D01*
G37*
%TD.AperFunction*%
%TD*%
%TA.AperFunction,Conductor*%
%TO.N,VIN*%
G36*
X87500783Y-86505023D02*
G01*
X87515781Y-86509427D01*
X87530771Y-86519057D01*
X87547852Y-86524067D01*
X87574532Y-86547172D01*
X87575719Y-86548541D01*
X87603195Y-86603402D01*
X87604840Y-86610960D01*
X87607677Y-86637331D01*
X87607677Y-87991768D01*
X87618276Y-88064514D01*
X87673132Y-88176725D01*
X87673133Y-88176726D01*
X87673132Y-88176726D01*
X87673133Y-88176727D01*
X87701076Y-88204670D01*
X87705205Y-88210185D01*
X87722222Y-88232916D01*
X87734831Y-88256008D01*
X87750000Y-88315434D01*
X87750000Y-88500000D01*
X87820500Y-88500000D01*
X87887539Y-88519685D01*
X87933294Y-88572489D01*
X87944500Y-88624000D01*
X87944500Y-90112674D01*
X87946245Y-90145268D01*
X87946246Y-90145282D01*
X87949080Y-90171656D01*
X87954316Y-90203969D01*
X87955958Y-90211521D01*
X87955959Y-90211525D01*
X87981310Y-90283366D01*
X87981318Y-90283385D01*
X87986872Y-90294474D01*
X88000000Y-90350002D01*
X88000000Y-94357670D01*
X87999999Y-94357676D01*
X88000000Y-94357679D01*
X87994975Y-94392614D01*
X87990570Y-94407612D01*
X87952827Y-94466355D01*
X87952792Y-94466385D01*
X87952791Y-94466387D01*
X87952789Y-94466387D01*
X87951458Y-94467542D01*
X87896597Y-94495018D01*
X87889039Y-94496663D01*
X87862668Y-94499500D01*
X80642330Y-94499500D01*
X80642325Y-94499499D01*
X80642323Y-94499500D01*
X80607389Y-94494475D01*
X80592390Y-94490070D01*
X80533644Y-94452327D01*
X80533615Y-94452293D01*
X80533614Y-94452293D01*
X80533613Y-94452291D01*
X80532457Y-94450958D01*
X80504977Y-94396083D01*
X80503332Y-94388521D01*
X80500500Y-94362168D01*
X80500500Y-92891829D01*
X80505523Y-92856893D01*
X80509927Y-92841895D01*
X80547672Y-92783144D01*
X80547700Y-92783119D01*
X80547699Y-92783119D01*
X80549041Y-92781956D01*
X80603920Y-92754477D01*
X80611479Y-92752833D01*
X80637832Y-92750000D01*
X83500000Y-92750000D01*
X83500000Y-88641829D01*
X83505023Y-88606893D01*
X83509427Y-88591895D01*
X83510104Y-88590842D01*
X83547172Y-88533144D01*
X83547200Y-88533119D01*
X83547199Y-88533119D01*
X83548541Y-88531956D01*
X83603420Y-88504477D01*
X83610979Y-88502833D01*
X83637332Y-88500000D01*
X85200077Y-88500000D01*
X85228548Y-88504093D01*
X85235009Y-88505021D01*
X85248328Y-88508932D01*
X85307106Y-88546706D01*
X85336132Y-88610261D01*
X85336133Y-88610269D01*
X85336817Y-88615028D01*
X85327512Y-88682755D01*
X85308414Y-88726005D01*
X85307844Y-88728711D01*
X85307589Y-88733124D01*
X85305502Y-88751117D01*
X85305500Y-88751131D01*
X85305500Y-89740856D01*
X85305502Y-89740882D01*
X85308413Y-89765987D01*
X85308415Y-89765991D01*
X85353793Y-89868764D01*
X85369181Y-89884152D01*
X85383884Y-89911079D01*
X85385814Y-89914083D01*
X85405500Y-89981120D01*
X85405500Y-90124097D01*
X85404439Y-90140285D01*
X85402336Y-90156256D01*
X85399661Y-90169704D01*
X85399499Y-90170939D01*
X85399499Y-90286959D01*
X85393600Y-90307045D01*
X85405111Y-90350002D01*
X85440422Y-90481783D01*
X85466304Y-90526611D01*
X85466306Y-90526614D01*
X85517622Y-90615498D01*
X85518979Y-90618021D01*
X85519479Y-90618714D01*
X85519480Y-90618716D01*
X85631284Y-90730520D01*
X85718095Y-90780639D01*
X85718097Y-90780641D01*
X85756146Y-90802608D01*
X85756149Y-90802611D01*
X85756150Y-90802611D01*
X85768211Y-90809575D01*
X85768212Y-90809575D01*
X85768215Y-90809577D01*
X85920943Y-90850501D01*
X85920946Y-90850501D01*
X86079054Y-90850501D01*
X86079057Y-90850501D01*
X86231785Y-90809577D01*
X86281904Y-90780639D01*
X86368716Y-90730520D01*
X86480520Y-90618716D01*
X86486520Y-90612716D01*
X86536639Y-90525904D01*
X86565577Y-90475785D01*
X86606500Y-90323058D01*
X86606500Y-90164943D01*
X86606500Y-89989662D01*
X86611522Y-89954729D01*
X86618934Y-89929484D01*
X86650229Y-89876741D01*
X86658206Y-89868765D01*
X86703585Y-89765991D01*
X86706500Y-89740865D01*
X86706499Y-88751136D01*
X86706497Y-88751117D01*
X86703586Y-88726012D01*
X86703585Y-88726010D01*
X86703585Y-88726009D01*
X86687858Y-88690391D01*
X86678343Y-88656406D01*
X86676383Y-88641433D01*
X86687200Y-88572407D01*
X86716033Y-88536009D01*
X86715011Y-88534987D01*
X86719984Y-88530013D01*
X86719987Y-88530012D01*
X86750000Y-88500000D01*
X86750000Y-88329138D01*
X86755022Y-88294205D01*
X86762434Y-88268960D01*
X86793729Y-88216217D01*
X86833220Y-88176727D01*
X86833222Y-88176725D01*
X86888078Y-88064514D01*
X86898677Y-87991768D01*
X86898677Y-87402720D01*
X86903678Y-87384057D01*
X86903678Y-87225943D01*
X86898677Y-87207279D01*
X86898677Y-86641829D01*
X86903700Y-86606893D01*
X86908104Y-86591895D01*
X86945849Y-86533144D01*
X86947218Y-86531957D01*
X87002097Y-86504477D01*
X87009656Y-86502833D01*
X87036009Y-86500000D01*
X87465847Y-86500000D01*
X87500783Y-86505023D01*
G37*
%TD.AperFunction*%
%TD*%
%TA.AperFunction,Conductor*%
%TO.N,Net-(D1-K)*%
G36*
X92143106Y-84505023D02*
G01*
X92158104Y-84509427D01*
X92173094Y-84519057D01*
X92190175Y-84524067D01*
X92216855Y-84547172D01*
X92218042Y-84548541D01*
X92245518Y-84603402D01*
X92247163Y-84610960D01*
X92250000Y-84637331D01*
X92250000Y-90108170D01*
X92244975Y-90143114D01*
X92240570Y-90158112D01*
X92230939Y-90173101D01*
X92225932Y-90190175D01*
X92202827Y-90216855D01*
X92201458Y-90218042D01*
X92146597Y-90245518D01*
X92139039Y-90247163D01*
X92112668Y-90250000D01*
X88391830Y-90250000D01*
X88356889Y-90244975D01*
X88341890Y-90240570D01*
X88326902Y-90230940D01*
X88309824Y-90225932D01*
X88283144Y-90202827D01*
X88281957Y-90201458D01*
X88254477Y-90146583D01*
X88252832Y-90139021D01*
X88250000Y-90112668D01*
X88250000Y-86391829D01*
X88255023Y-86356893D01*
X88259427Y-86341895D01*
X88269057Y-86326904D01*
X88274067Y-86309824D01*
X88297172Y-86283144D01*
X88298541Y-86281957D01*
X88353420Y-86254477D01*
X88360979Y-86252833D01*
X88387332Y-86250000D01*
X91000000Y-86250000D01*
X91000000Y-84641829D01*
X91005023Y-84606893D01*
X91009427Y-84591895D01*
X91047172Y-84533144D01*
X91047200Y-84533119D01*
X91047199Y-84533119D01*
X91048541Y-84531956D01*
X91103420Y-84504477D01*
X91110979Y-84502833D01*
X91137332Y-84500000D01*
X92108170Y-84500000D01*
X92143106Y-84505023D01*
G37*
%TD.AperFunction*%
%TD*%
M02*
