%TF.GenerationSoftware,KiCad,Pcbnew,10.0.4-1.fc44*%
%TF.CreationDate,2026-08-05T14:50:01+05:30*%
%TF.ProjectId,lmr16006-12v-3v3-sw-buck-conv,6c6d7231-3630-4303-962d-3132762d3376,rev?*%
%TF.SameCoordinates,Original*%
%TF.FileFunction,Copper,L2,Bot*%
%TF.FilePolarity,Positive*%
%FSLAX46Y46*%
G04 Gerber Fmt 4.6, Leading zero omitted, Abs format (unit mm)*
G04 Created by KiCad (PCBNEW 10.0.4-1.fc44) date 2026-08-05 14:50:01*
%MOMM*%
%LPD*%
G01*
G04 APERTURE LIST*
%TA.AperFunction,ComponentPad*%
%ADD10R,0.850000X0.850000*%
%TD*%
%TA.AperFunction,ViaPad*%
%ADD11C,0.600000*%
%TD*%
G04 APERTURE END LIST*
D10*
%TO.P,GND,1,Pin_1_1*%
%TO.N,GND*%
X98835000Y-81075000D03*
%TD*%
%TO.P,12V,1,Pin_1_1*%
%TO.N,VIN*%
X81335000Y-93725000D03*
%TD*%
%TO.P,3.3V,1,Pin_1_1*%
%TO.N,+3.3V*%
X98585000Y-93750000D03*
%TD*%
%TO.P,GND,1,Pin_1_1*%
%TO.N,GND*%
X81085000Y-81075000D03*
%TD*%
D11*
%TO.N,GND*%
X96000000Y-82750000D03*
X87253177Y-83500000D03*
X83104323Y-85395677D03*
X89887400Y-92612600D03*
X86000000Y-90250000D03*
%TD*%
%TA.AperFunction,Conductor*%
%TO.N,GND*%
G36*
X99442539Y-80520185D02*
G01*
X99488294Y-80572989D01*
X99499500Y-80624500D01*
X99499500Y-93101831D01*
X99479815Y-93168870D01*
X99427011Y-93214625D01*
X99357853Y-93224569D01*
X99294297Y-93195544D01*
X99269099Y-93161439D01*
X99268699Y-93161714D01*
X99262205Y-93152234D01*
X99182765Y-93072794D01*
X99079992Y-93027415D01*
X99054865Y-93024500D01*
X98115143Y-93024500D01*
X98115117Y-93024502D01*
X98090012Y-93027413D01*
X98090008Y-93027415D01*
X97987235Y-93072793D01*
X97907794Y-93152234D01*
X97862415Y-93255006D01*
X97862415Y-93255008D01*
X97859500Y-93280131D01*
X97859500Y-94219856D01*
X97859502Y-94219882D01*
X97862413Y-94244987D01*
X97862415Y-94244991D01*
X97897925Y-94325414D01*
X97906997Y-94394692D01*
X97877173Y-94457877D01*
X97817924Y-94494908D01*
X97784491Y-94499500D01*
X82124470Y-94499500D01*
X82057431Y-94479815D01*
X82011676Y-94427011D01*
X82001732Y-94357853D01*
X82011036Y-94325413D01*
X82012204Y-94322766D01*
X82012206Y-94322765D01*
X82057585Y-94219991D01*
X82060500Y-94194865D01*
X82060499Y-93255136D01*
X82060484Y-93255006D01*
X82057586Y-93230012D01*
X82057585Y-93230010D01*
X82057585Y-93230009D01*
X82012206Y-93127235D01*
X81932765Y-93047794D01*
X81886611Y-93027415D01*
X81829992Y-93002415D01*
X81804865Y-92999500D01*
X80865143Y-92999500D01*
X80865117Y-92999502D01*
X80840012Y-93002413D01*
X80840008Y-93002415D01*
X80737235Y-93047793D01*
X80737234Y-93047794D01*
X80712181Y-93072848D01*
X80650858Y-93106333D01*
X80581166Y-93101349D01*
X80525233Y-93059477D01*
X80500816Y-92994013D01*
X80500500Y-92985167D01*
X80500500Y-80624500D01*
X80520185Y-80557461D01*
X80572989Y-80511706D01*
X80624500Y-80500500D01*
X99375500Y-80500500D01*
X99442539Y-80520185D01*
G37*
%TD.AperFunction*%
%TD*%
M02*
